<svg width="375" height="61" viewBox="0 0 375 61" fill="none" xmlns="http://www.w3.org/2000/svg">
<path d="M4.89541 60.9969H0V28.6284H12.2437C15.322 28.6284 17.8375 29.5566 19.7693 31.406C21.6107 33.2276 22.5349 35.583 22.5349 38.4688C22.5349 41.3546 21.6107 43.6576 19.7693 45.4756C17.8375 47.3251 15.322 48.2533 12.2437 48.2533H8.73113V43.8321H11.9797C13.6926 43.8321 15.0754 43.368 16.1038 42.4258C17.1287 41.4523 17.6464 40.1332 17.6464 38.4688C17.6464 36.8043 17.1287 35.4294 16.1038 34.4559C15.0788 33.5172 13.696 33.0426 11.9797 33.0426H4.89541V60.9969Z" fill="white"/>
<path d="M38.361 28.4956L50.233 60.9967H45.0145L43.5622 56.8128L42.7527 54.4923L36.4953 35.82L31.4679 50.2525H37.2631L38.712 54.4957H29.9669L27.7468 61.0001H22.5317L34.4072 28.4991H38.3576L38.361 28.4956Z" fill="white"/>
<path d="M54.7251 60.9972V28.5869H59.6205V56.5796H75.1684V60.9937H54.7251V60.9972Z" fill="white"/>
<path d="M104.315 60.9972V39.331L96.8798 55.1244H93.2525L85.6332 39.331V60.9972H80.7378V28.5869H85.6332L95.0696 48.7526L104.318 28.5869H109.21V60.9972H104.318H104.315Z" fill="white"/>
<path d="M225.779 60.7277H220.883V28.3628H233.127C236.212 28.3628 238.714 29.2805 240.653 31.13C242.494 32.9515 243.418 35.3069 243.418 38.1892C243.418 41.0715 242.494 43.3815 240.653 45.203C238.714 47.0525 236.212 47.9807 233.127 47.9807H229.611V43.5665H232.853C234.576 43.5665 235.948 43.0954 236.98 42.1532C238.005 41.1832 238.519 39.8571 238.519 38.1927C238.519 36.5282 238.005 35.1603 236.98 34.1867C235.945 33.2446 234.576 32.7735 232.853 32.7735H225.782V60.7312L225.779 60.7277Z" fill="white"/>
<path d="M211.187 58.4909C209.068 60.1658 206.285 60.9963 202.842 60.9963C198.037 60.9963 194.229 59.5761 191.421 56.7182L194.684 53.487C196.734 55.5527 199.485 56.5821 202.932 56.5821C207.376 56.5821 209.603 54.9281 209.603 51.6236C209.603 50.1301 209.175 49.0134 208.328 48.2527C207.605 47.5828 206.427 47.1256 204.798 46.8814L200.986 46.3405C198.356 45.9741 196.32 45.1052 194.864 43.7443C193.294 42.2508 192.509 40.185 192.509 37.5505C192.509 34.6926 193.475 32.4035 195.41 30.6692C197.338 28.9105 199.968 28.0347 203.297 28.0347C207.344 28.0347 210.69 29.2665 213.317 31.7161L210.187 34.8182C208.435 33.1433 206.09 32.3128 203.158 32.3128C201.316 32.3128 199.868 32.7978 198.808 33.7679C197.776 34.6752 197.269 35.879 197.269 37.3655C197.269 38.6427 197.672 39.6407 198.495 40.3735C199.34 41.1307 200.545 41.6332 202.112 41.8705L205.791 42.4218C208.474 42.844 210.489 43.6536 211.816 44.833C213.567 46.3789 214.453 48.5982 214.453 51.4805C214.453 54.3628 213.362 56.7601 211.187 58.4909Z" fill="white"/>
<path d="M312.361 60.7278L297.449 37.9171V60.7278H292.553V28.3105H297.042L311.954 51.0759V28.3105H316.85V60.7278H312.361Z" fill="white"/>
<path d="M347.496 48.1614C347.496 52.1988 346.53 55.2486 344.592 57.3109C342.264 59.771 339.304 60.9958 335.701 60.9958C332.351 60.9958 329.527 59.8477 327.233 57.5447C325.778 56.0826 324.857 54.296 324.464 52.1709C324.221 50.8379 324.1 48.2801 324.1 44.5184C324.1 40.7568 324.218 38.206 324.464 36.866C324.857 34.7444 325.781 32.9508 327.233 31.4957C329.523 29.1891 332.351 28.0376 335.701 28.0376C339.05 28.0376 341.677 29.0216 343.82 30.9967C345.755 32.7903 346.971 35.1561 347.451 38.1013H342.51C341.638 34.3396 339.37 32.4518 335.701 32.4518C333.772 32.4518 332.188 33.1218 330.948 34.4548C329.645 35.882 328.998 39.2388 328.998 44.5184C328.998 49.798 329.648 53.1968 330.948 54.624C332.153 55.9325 333.741 56.5816 335.701 56.5816C337.882 56.5816 339.641 55.8209 340.961 54.3099C342.055 53.0293 342.601 51.3334 342.601 49.2083V47.3903H335.701V43.1994H347.496V48.1614Z" fill="white"/>
<path d="M371.609 58.4909C369.497 60.1658 366.714 60.9963 363.267 60.9963C358.466 60.9963 354.654 59.5761 351.851 56.7182L355.103 53.487C357.166 55.5527 359.915 56.5821 363.361 56.5821C367.805 56.5821 370.018 54.9281 370.018 51.6236C370.018 50.1301 369.598 49.0134 368.747 48.2527C368.027 47.5828 366.843 47.1256 365.213 46.8814L361.412 46.3405C358.778 45.9741 356.743 45.1052 355.287 43.7443C353.716 42.2508 352.935 40.185 352.935 37.5505C352.935 34.6926 353.9 32.4035 355.829 30.6797C357.764 28.9105 360.394 28.0347 363.723 28.0347C367.767 28.0347 371.106 29.2665 373.739 31.7161L370.609 34.8182C368.854 33.1537 366.516 32.3128 363.58 32.3128C361.739 32.3128 360.29 32.7978 359.223 33.7679C358.202 34.6752 357.688 35.879 357.688 37.3655C357.688 38.6427 358.098 39.6407 358.907 40.3735C359.755 41.1307 360.967 41.6332 362.545 41.8705L366.21 42.4218C368.896 42.844 370.908 43.6536 372.235 44.833C373.986 46.3789 374.861 48.5982 374.861 51.4805C374.861 54.3628 373.777 56.7601 371.599 58.4909H371.609Z" fill="white"/>
<path d="M279.232 60.7278V28.3105H284.12V60.7278H279.232Z" fill="white"/>
<path d="M264.199 47.7614C266.2 47.395 267.903 46.5366 269.303 45.2001C271.144 43.3786 272.072 41.0441 272.072 38.1862C272.072 35.3284 271.144 32.952 269.303 31.127C267.361 29.2776 264.856 28.3599 261.777 28.3599H249.537V60.7248H254.433V32.7671H261.506C263.226 32.7671 264.599 33.2382 265.627 34.1803C266.655 35.1504 267.17 36.4869 267.17 38.1862C267.17 39.8856 266.659 41.1767 265.627 42.1468C264.599 43.089 263.226 43.5601 261.506 43.5601H258.265V47.9742L267.708 60.7248H273.806L264.202 47.7579L264.199 47.7614Z" fill="white"/>
<path d="M157.15 42.925L157.157 44.1114L157.15 44.1219V60.9935H160.215V42.5062C161.299 33.964 169.94 32.2193 177.156 32.296C177.771 30.1011 178.097 27.7806 178.097 25.3834C178.097 24.3679 178.042 23.3629 177.924 22.3789C157.63 23.192 157.15 42.9215 157.15 42.9215V42.925Z" fill="white"/>
<path d="M145.424 42.5102V60.9974H148.482V42.9254C148.482 42.9254 148.002 23.2063 127.719 22.3828C127.601 23.3668 127.545 24.3718 127.545 25.3873C127.545 27.7845 127.872 30.105 128.493 32.2999C135.703 32.2232 144.337 33.9644 145.424 42.5102Z" fill="white"/>
<path d="M158.72 0.697897C156.827 0.237285 154.857 0 152.821 0C150.785 0 148.818 0.237285 146.928 0.697897C152.025 12.0945 152.821 21.3521 152.821 21.3521C152.821 21.3521 153.623 12.0945 158.72 0.697897Z" fill="white"/>
<path d="M151.296 44.1257V60.9974H154.35V44.1257C154.35 44.1257 152.547 19.4865 175.088 13.3625C173.4 10.2219 171.079 7.47571 168.286 5.30176C163.206 8.95874 154.225 17.829 152.821 31.5182C151.421 17.829 142.44 8.95525 137.367 5.30176C134.574 7.47571 132.242 10.2219 130.554 13.3625C153.092 19.4865 151.296 44.1257 151.296 44.1257Z" fill="white"/>
</svg>
