<svg width="297" height="182" viewBox="0 0 297 182" fill="none" xmlns="http://www.w3.org/2000/svg">
<g clip-path="url(#clip0_58_227)">
<path d="M16.1317 122.129H19.8019L16.6092 128.04H12.4307L16.1317 122.129ZM21.6235 122.129H25.2938L22.0992 128.04H17.9207L21.6217 122.129H21.6235Z" fill="#2E3192"/>
<path d="M24.6084 142.789C24.1309 142.351 23.8921 141.734 23.8921 140.938C23.8921 140.58 23.9319 140.232 24.0115 139.894L26.638 127.474H31.1747L28.8159 138.671C28.7562 138.93 28.7273 139.149 28.7273 139.328C28.7273 139.567 28.796 139.737 28.9353 139.836C29.0746 139.936 29.3134 139.985 29.6516 139.985H30.8455L30.1292 143.448H26.6669C25.7715 143.448 25.0842 143.229 24.6084 142.791V142.789Z" fill="#2E3192"/>
<path d="M34.2784 142.789C33.3233 142.053 32.8457 141.027 32.8457 139.713C32.8457 139.295 32.8855 138.917 32.9651 138.579C33.3233 136.907 34.1933 135.604 35.5771 134.668C36.9591 133.733 38.6866 133.264 40.756 133.264C41.6713 133.264 42.5414 133.344 43.3681 133.503C44.1929 133.662 44.9057 133.901 45.5026 134.22L45.6509 133.592C45.7504 133.194 45.8011 132.866 45.8011 132.607C45.8011 131.871 45.4917 131.323 44.8749 130.964C44.2581 130.606 43.2433 130.427 41.8305 130.427C40.8555 130.427 39.8805 130.527 38.9055 130.726C37.9305 130.925 37.0351 131.203 36.2193 131.562L36.9356 128.158C37.6719 127.84 38.6378 127.572 39.8299 127.351C41.0237 127.132 42.2068 127.023 43.3807 127.023C45.6889 127.023 47.4255 127.472 48.5886 128.366C49.7517 129.262 50.3342 130.487 50.3342 132.039C50.3342 132.517 50.2745 133.024 50.1551 133.561L48.0658 143.444H43.558L44.8116 137.504C43.7769 136.907 42.4835 136.608 40.9315 136.608C38.9815 136.608 37.8564 137.305 37.5579 138.698C37.5181 138.977 37.4982 139.176 37.4982 139.295C37.4982 139.773 37.6773 140.122 38.0354 140.339C38.3936 140.558 38.9905 140.667 39.8263 140.667C40.4829 140.667 41.0599 140.567 41.5574 140.368L40.9007 143.504C40.065 143.763 39.0394 143.893 37.8256 143.893C36.4129 143.893 35.228 143.524 34.2747 142.789H34.2784Z" fill="#2E3192"/>
<path d="M38.696 122.636H44.2476L44.9042 119.471H48.039L47.3824 122.636H49.3812L50.0071 119.471H53.1112L51.8287 125.502H38.0684L38.696 122.636Z" fill="#2E3192"/>
<path d="M53.9032 143.475C52.6786 143.196 51.6294 142.829 50.7539 142.371L52.5447 133.981H60.0969L59.3806 137.294H56.2765L55.7392 139.861C56.4556 140.2 57.322 140.368 58.335 140.368C61.4789 140.368 63.409 138.736 64.1253 135.472C64.2646 134.855 64.3333 134.278 64.3333 133.74C64.3333 132.586 63.93 131.764 63.125 131.277C62.3182 130.791 61.0013 130.546 59.1707 130.546C58.1758 130.546 57.1357 130.651 56.0522 130.859C54.9668 131.068 54.028 131.363 53.2321 131.741L53.9774 128.218C54.8529 127.839 55.893 127.546 57.0959 127.336C58.2988 127.128 59.5289 127.023 60.7825 127.023C63.409 127.023 65.4386 127.575 66.8712 128.681C68.3039 129.786 69.0202 131.353 69.0202 133.384C69.0202 133.981 68.9406 134.677 68.7814 135.474C68.2044 138.181 67.0304 140.261 65.2595 141.714C63.4886 143.167 61.0013 143.893 57.7978 143.893C56.4248 143.893 55.126 143.754 53.9032 143.475Z" fill="#2E3192"/>
<path d="M72.423 133.921L71.4679 131.382C72.9205 129.969 74.458 128.889 76.0788 128.143C77.6996 127.398 79.4669 127.023 81.3771 127.023C83.4863 127.023 85.1432 127.467 86.3461 128.352C87.549 129.238 88.1514 130.467 88.1514 132.039C88.1514 132.577 88.1008 133.054 88.0013 133.472L85.912 143.444H81.3753L83.4049 133.831C83.5043 133.293 83.555 132.875 83.555 132.577C83.555 131.88 83.3307 131.368 82.8839 131.039C82.4353 130.711 81.6846 130.546 80.63 130.546C79.7744 130.546 78.9875 130.666 78.2712 130.905C77.5549 131.144 76.8476 131.531 76.153 132.068L76.929 133.979L74.9301 143.444H70.4224L72.4212 133.921H72.423Z" fill="#2E3192"/>
<path d="M91.959 142.371C90.7741 141.356 90.1826 140.042 90.1826 138.43C90.1826 137.933 90.2423 137.435 90.3617 136.937L92.3605 127.474H96.8973L94.9274 136.758C94.808 137.256 94.7483 137.714 94.7483 138.132C94.7483 138.908 94.9871 139.476 95.4646 139.834C95.9422 140.193 96.7272 140.372 97.8234 140.372C99.0571 140.372 100.041 140.059 100.777 139.431C101.514 138.803 102 137.913 102.239 136.758L105.343 122.129H109.88L106.716 137.057C106.278 139.167 105.263 140.833 103.672 142.058C102.08 143.281 99.8801 143.895 97.0763 143.895C94.8478 143.895 93.142 143.386 91.9571 142.371H91.959Z" fill="#2E3192"/>
<path d="M115.314 133.503C115.433 132.986 115.493 132.539 115.493 132.159C115.493 131.581 115.303 131.169 114.927 130.919C114.548 130.671 113.901 130.546 112.987 130.546C111.953 130.546 110.838 130.814 109.645 131.352L110.361 127.919C110.878 127.68 111.56 127.47 112.405 127.291C113.25 127.112 114.051 127.023 114.807 127.023C116.518 127.023 117.823 127.432 118.718 128.248C119.613 129.065 120.06 130.219 120.06 131.712C120.06 132.309 119.99 132.917 119.852 133.534L117.763 143.446H113.226L115.315 133.505L115.314 133.503Z" fill="#2E3192"/>
<path d="M122.565 142.789C121.61 142.053 121.133 141.027 121.133 139.713C121.133 139.295 121.173 138.917 121.252 138.579C121.61 136.907 122.48 135.604 123.864 134.668C125.246 133.733 126.974 133.264 129.043 133.264C129.958 133.264 130.829 133.344 131.655 133.503C132.48 133.662 133.193 133.901 133.79 134.22L133.938 133.592C134.038 133.194 134.088 132.866 134.088 132.607C134.088 131.871 133.779 131.323 133.162 130.964C132.545 130.606 131.53 130.427 130.118 130.427C129.143 130.427 128.168 130.527 127.193 130.726C126.218 130.925 125.322 131.203 124.506 131.562L125.223 128.158C125.959 127.84 126.925 127.572 128.117 127.351C129.311 127.132 130.494 127.023 131.668 127.023C133.976 127.023 135.713 127.472 136.876 128.366C138.039 129.262 138.621 130.487 138.621 132.039C138.621 132.517 138.562 133.024 138.442 133.561L136.353 143.444H131.845L133.099 137.504C132.064 136.907 130.771 136.608 129.219 136.608C127.269 136.608 126.143 137.305 125.845 138.698C125.805 138.977 125.785 139.176 125.785 139.295C125.785 139.773 125.964 140.122 126.323 140.339C126.681 140.558 127.278 140.667 128.113 140.667C128.77 140.667 129.347 140.567 129.844 140.368L129.188 143.504C128.352 143.763 127.326 143.893 126.113 143.893C124.7 143.893 123.515 143.524 122.562 142.789H122.565Z" fill="#2E3192"/>
<path d="M132.535 123.233C132.734 122.357 133.112 121.7 133.669 121.262C134.226 120.824 135.011 120.605 136.026 120.605H142.712L142.115 123.443H137.37C137.071 123.443 136.843 123.508 136.684 123.636C136.525 123.766 136.415 123.98 136.355 124.279L136.086 125.504H132.057L132.535 123.234V123.233Z" fill="#2E3192"/>
<path d="M146.219 143.327C145.372 142.948 144.672 142.391 144.115 141.655L143.757 143.446H139.43L142.802 127.474H147.339L145.07 138.222C145.23 138.879 145.608 139.402 146.205 139.789C146.801 140.176 147.518 140.372 148.353 140.372C149.448 140.372 150.284 140.138 150.861 139.67C151.438 139.203 151.836 138.47 152.055 137.475L154.173 127.474H158.681L156.503 137.744C156.125 139.576 155.303 141.058 154.041 142.192C152.776 143.327 151.09 143.895 148.981 143.895C147.986 143.895 147.066 143.705 146.221 143.327H146.219Z" fill="#2E3192"/>
<path d="M160.084 142.789C159.129 142.053 158.651 141.027 158.651 139.713C158.651 139.295 158.691 138.917 158.771 138.579C159.129 136.907 159.999 135.604 161.383 134.668C162.765 133.733 164.492 133.264 166.562 133.264C167.477 133.264 168.347 133.344 169.174 133.503C169.999 133.662 170.711 133.901 171.308 134.22L171.457 133.592C171.556 133.194 171.607 132.866 171.607 132.607C171.607 131.871 171.297 131.323 170.681 130.964C170.064 130.606 169.049 130.427 167.636 130.427C166.661 130.427 165.686 130.527 164.711 130.726C163.736 130.925 162.841 131.203 162.025 131.562L162.741 128.158C163.478 127.84 164.443 127.572 165.636 127.351C166.829 127.132 168.012 127.023 169.186 127.023C170.659 127.023 171.882 127.203 172.857 127.561L174.26 126.276H179.184L175.543 129.651C175.921 130.328 176.109 131.135 176.109 132.068C176.109 132.506 176.058 133.004 175.959 133.561L173.87 143.444H169.362L170.615 137.504C169.581 136.907 168.287 136.608 166.735 136.608C164.785 136.608 163.66 137.305 163.362 138.698C163.322 138.977 163.302 139.176 163.302 139.295C163.302 139.773 163.481 140.122 163.839 140.339C164.197 140.558 164.794 140.667 165.63 140.667C166.287 140.667 166.864 140.567 167.361 140.368L166.705 143.504C165.869 143.763 164.843 143.893 163.629 143.893C162.217 143.893 161.032 143.524 160.079 142.789H160.084Z" fill="#2E3192"/>
<path d="M180.246 142.371C179.061 141.356 178.47 140.042 178.47 138.43C178.47 137.933 178.529 137.435 178.649 136.937L180.648 127.474H185.184L183.214 136.758C183.095 137.256 183.035 137.714 183.035 138.132C183.035 138.908 183.274 139.476 183.752 139.834C184.229 140.193 185.014 140.372 186.111 140.372C187.344 140.372 188.328 140.059 189.064 139.431C189.801 138.803 190.287 137.913 190.526 136.758L193.63 122.129H198.167L195.003 137.057C194.565 139.167 193.551 140.833 191.959 142.058C190.367 143.281 188.167 143.895 185.363 143.895C183.135 143.895 181.429 143.386 180.244 142.371H180.246Z" fill="#2E3192"/>
<path d="M199.064 143.549C197.91 143.321 197.034 142.977 196.438 142.52L197.183 139.056C197.939 139.574 198.829 139.972 199.855 140.251C200.878 140.529 201.83 140.669 202.705 140.669C203.76 140.669 204.556 140.564 205.093 140.355C205.63 140.147 205.949 139.773 206.048 139.235C206.068 139.176 206.079 139.076 206.079 138.937C206.079 138.638 205.949 138.39 205.692 138.191C205.433 137.992 205.015 137.788 204.438 137.58C203.861 137.37 203.214 137.147 202.497 136.908C201.124 136.451 200.104 135.919 199.438 135.311C198.771 134.705 198.438 133.912 198.438 132.937C198.438 132.559 198.478 132.2 198.558 131.862C198.876 130.329 199.741 129.141 201.155 128.294C202.568 127.449 204.319 127.025 206.408 127.025C207.542 127.025 208.611 127.145 209.617 127.384C210.621 127.622 211.403 127.932 211.96 128.31L211.214 131.862C210.677 131.424 209.961 131.071 209.065 130.802C208.17 130.534 207.264 130.398 206.35 130.398C204.42 130.398 203.355 130.887 203.156 131.86C203.136 131.92 203.125 132.01 203.125 132.128C203.125 132.526 203.329 132.839 203.736 133.069C204.143 133.299 204.836 133.561 205.811 133.86L206.855 134.218C208.288 134.676 209.297 135.208 209.885 135.816C210.471 136.424 210.766 137.164 210.766 138.039C210.766 138.398 210.715 138.826 210.616 139.324C210.317 140.717 209.516 141.827 208.213 142.653C206.909 143.479 205.024 143.893 202.557 143.893C201.383 143.893 200.218 143.779 199.066 143.549H199.064Z" fill="#2E3192"/>
<path d="M199.721 122.636H213.51L212.884 125.502H199.095L199.721 122.636Z" fill="#2E3192"/>
<path d="M214.584 129.473H219.092L220.255 140.073C221.728 140.073 222.956 139.63 223.942 138.745C224.926 137.86 225.588 136.601 225.926 134.969C226.085 134.173 226.165 133.536 226.165 133.058C226.165 132.202 225.951 131.571 225.523 131.162C225.094 130.755 224.403 130.55 223.448 130.55C222.791 130.55 222.135 130.65 221.478 130.849L222.194 127.445C223.09 127.166 224.065 127.027 225.119 127.027C226.95 127.027 228.357 127.516 229.343 128.489C230.329 129.464 230.821 130.829 230.821 132.578C230.821 133.295 230.731 134.091 230.552 134.967C229.974 137.674 228.766 139.764 226.925 141.237C225.083 142.71 222.811 143.446 220.105 143.446H216.106L214.583 129.473H214.584Z" fill="#2E3192"/>
<path d="M232.999 142.789C232.044 142.053 231.566 141.027 231.566 139.713C231.566 139.295 231.606 138.917 231.686 138.579C232.044 136.907 232.914 135.604 234.298 134.668C235.68 133.733 237.407 133.264 239.477 133.264C240.392 133.264 241.262 133.344 242.089 133.503C242.914 133.662 243.626 133.901 244.223 134.22L244.372 133.592C244.471 133.194 244.522 132.866 244.522 132.607C244.522 131.871 244.212 131.323 243.596 130.964C242.979 130.606 241.964 130.427 240.551 130.427C239.576 130.427 238.601 130.527 237.626 130.726C236.651 130.925 235.756 131.203 234.94 131.562L235.656 128.158C236.393 127.84 237.359 127.572 238.551 127.351C239.744 127.132 240.927 127.023 242.101 127.023C243.574 127.023 244.797 127.203 245.772 127.561L247.175 126.276H252.099L248.458 129.651C248.836 130.328 249.024 131.135 249.024 132.068C249.024 132.506 248.973 133.004 248.874 133.561L246.785 143.444H242.277L243.53 137.504C242.496 136.907 241.202 136.608 239.65 136.608C237.7 136.608 236.575 137.305 236.277 138.698C236.237 138.977 236.217 139.176 236.217 139.295C236.217 139.773 236.396 140.122 236.754 140.339C237.112 140.558 237.709 140.667 238.545 140.667C239.202 140.667 239.779 140.567 240.276 140.368L239.62 143.504C238.784 143.763 237.758 143.893 236.545 143.893C235.132 143.893 233.947 143.524 232.994 142.789H232.999Z" fill="#2E3192"/>
<path d="M243.297 123.233C243.496 122.357 243.874 121.7 244.432 121.262C244.989 120.824 245.774 120.605 246.789 120.605H253.474L252.877 123.443H248.133C247.834 123.443 247.606 123.508 247.447 123.636C247.288 123.766 247.177 123.98 247.118 124.279L246.848 125.504H242.82L243.297 123.234V123.233Z" fill="#2E3192"/>
<path d="M79.3023 180.894C78.8247 180.457 78.5859 179.84 78.5859 179.043C78.5859 178.685 78.6257 178.338 78.7053 177.999L81.3318 165.579H85.8686L83.5098 176.776C83.4501 177.035 83.4211 177.254 83.4211 177.433C83.4211 177.672 83.4899 177.842 83.6292 177.941C83.7684 178.041 84.0072 178.09 84.3455 178.09H85.5394L84.823 181.553H81.3608C80.4654 181.553 79.778 181.334 79.3023 180.896V180.894Z" fill="#2E3192"/>
<path d="M89.7178 165.579H94.2545L94.4336 175.343L99.2398 165.579H102.523L103.21 175.343L107.508 165.579H112.045L104.225 181.551H100.524L99.7481 171.61L94.7935 181.551H90.7941L89.7196 165.579H89.7178Z" fill="#2E3192"/>
<path d="M95.5081 160.743H101.06L101.716 157.578H104.851L104.194 160.743H106.193L106.819 157.578H109.923L108.641 163.609H94.8804L95.5081 160.743Z" fill="#2E3192"/>
<path d="M107.089 151.607H111.148L110.252 155.817H106.222L107.089 151.607Z" fill="#2E3192"/>
<path d="M113.61 181.582C112.385 181.303 111.336 180.936 110.46 180.478L112.251 172.088H119.803L119.087 175.401H115.983L115.446 177.969C116.162 178.307 117.029 178.475 118.042 178.475C121.185 178.475 123.116 176.843 123.832 173.579C123.971 172.962 124.04 172.385 124.04 171.847C124.04 170.693 123.636 169.871 122.832 169.384C122.025 168.898 120.708 168.653 118.877 168.653C117.882 168.653 116.842 168.758 115.759 168.967C114.673 169.175 113.735 169.47 112.939 169.848L113.684 166.325C114.559 165.947 115.6 165.653 116.802 165.444C118.005 165.235 119.235 165.13 120.489 165.13C123.116 165.13 125.145 165.682 126.578 166.788C128.01 167.894 128.727 169.46 128.727 171.491C128.727 172.088 128.647 172.784 128.488 173.581C127.911 176.288 126.737 178.368 124.966 179.821C123.195 181.274 120.708 182 117.504 182C116.131 182 114.833 181.861 113.61 181.582Z" fill="#2E3192"/>
<path d="M132.996 181.343C132.001 180.905 131.245 180.314 130.727 179.566C130.21 178.821 129.951 177.988 129.951 177.073C129.951 176.754 129.982 176.436 130.042 176.117L130.192 175.372C130.331 174.655 130.604 174.004 131.013 173.416C131.42 172.83 131.954 172.187 132.61 171.491C133.008 171.053 133.307 170.7 133.506 170.43C133.705 170.163 133.835 169.918 133.895 169.699C133.914 169.64 133.925 169.56 133.925 169.46C133.925 169.062 133.636 168.863 133.059 168.863H131.387L132.073 165.579H136.4C137.176 165.579 137.778 165.769 138.205 166.146C138.632 166.524 138.847 167.041 138.847 167.698C138.847 167.917 138.817 168.147 138.757 168.384C138.638 168.981 138.424 169.513 138.115 169.982C137.805 170.45 137.344 171.051 136.727 171.787C136.17 172.424 135.732 172.976 135.414 173.445C135.096 173.914 134.886 174.415 134.788 174.952L134.669 175.578C134.609 175.897 134.578 176.195 134.578 176.474C134.578 177.131 134.792 177.628 135.221 177.967C135.647 178.305 136.329 178.473 137.265 178.473C138.458 178.473 139.379 178.18 140.025 177.592C140.671 177.006 141.125 176.114 141.383 174.92C141.483 174.502 141.534 174.044 141.534 173.546C141.534 172.034 140.797 171.277 139.325 171.277L139.774 169.097L143.503 165.127H148.308L144.01 169.665C145.383 170.401 146.068 171.635 146.068 173.367C146.068 173.865 146.009 174.402 145.889 174.979C145.472 177.268 144.482 179.009 142.919 180.205C141.356 181.399 139.224 181.996 136.517 181.996C135.164 181.996 133.99 181.777 132.996 181.34V181.343Z" fill="#2E3192"/>
<path d="M134.877 160.743H144.607L145.264 157.578H149.323L148.04 163.609H134.251L134.879 160.743H134.877Z" fill="#2E3192"/>
<path d="M146.905 180.715L147.681 177.192C148.715 178.048 150.307 178.475 152.456 178.475C154.128 178.475 155.51 178.072 156.606 177.266C157.7 176.461 158.416 175.231 158.755 173.579C158.894 172.882 158.963 172.336 158.963 171.938C158.963 170.823 158.605 169.996 157.888 169.459C157.172 168.921 156.058 168.653 154.545 168.653C152.496 168.653 150.754 169.091 149.321 169.967L150.067 166.444C150.843 166.006 151.772 165.679 152.858 165.46C153.941 165.241 155.081 165.132 156.275 165.132C158.523 165.132 160.309 165.709 161.633 166.864C162.955 168.018 163.617 169.602 163.617 171.612C163.617 172.289 163.547 172.945 163.407 173.582C162.85 176.309 161.685 178.394 159.916 179.838C158.145 181.282 155.738 182.002 152.693 182.002C150.067 182.002 148.137 181.573 146.903 180.717L146.905 180.715Z" fill="#2E3192"/>
<path d="M151.711 160.743H165.5L164.874 163.609H151.085L151.711 160.743Z" fill="#2E3192"/>
<path d="M166.828 180.433C165.623 179.389 165.022 177.891 165.022 175.94C165.022 175.204 165.102 174.487 165.261 173.791C165.858 170.984 166.828 168.84 168.172 167.356C169.514 165.874 171.231 165.132 173.32 165.132C174.693 165.132 175.619 165.661 176.095 166.716C176.572 166.178 177.2 165.78 177.974 165.521C178.75 165.263 179.557 165.132 180.393 165.132C181.646 165.132 182.601 165.491 183.258 166.207C183.915 166.924 184.244 167.83 184.244 168.925C184.244 169.303 184.193 169.721 184.094 170.179L181.706 181.555H177.2L179.497 170.628C179.577 170.309 179.617 170.011 179.617 169.732C179.617 169.015 179.259 168.657 178.542 168.657C177.687 168.657 177.03 169.194 176.572 170.269H174.454C174.554 169.194 174.195 168.657 173.38 168.657C172.663 168.657 171.996 169.086 171.379 169.94C170.762 170.796 170.276 172.081 169.917 173.792C169.758 174.549 169.679 175.186 169.679 175.703C169.679 176.639 169.943 177.335 170.469 177.793C170.995 178.251 171.867 178.479 173.081 178.479C173.837 178.479 174.543 178.37 175.199 178.151L174.454 181.615C173.618 181.873 172.634 182.004 171.5 182.004C169.59 182.004 168.032 181.481 166.83 180.437L166.828 180.433Z" fill="#2E3192"/>
<path d="M188.153 165.579H192.482L192.093 167.4C192.948 166.683 193.938 166.126 195.063 165.728C196.186 165.33 197.246 165.13 198.241 165.13C199.813 165.13 201.002 165.563 201.808 166.43C202.615 167.295 203.017 168.375 203.017 169.669C203.017 170.087 202.966 170.544 202.868 171.042L200.66 181.551H196.152L198.301 171.429C198.381 171.111 198.42 170.783 198.42 170.445C198.42 169.828 198.23 169.375 197.852 169.086C197.474 168.798 196.868 168.653 196.033 168.653C195.197 168.653 194.401 168.847 193.585 169.236C192.769 169.625 192.102 170.157 191.586 170.834L189.318 181.551H184.781L188.153 165.579Z" fill="#2E3192"/>
<path d="M191.257 160.743H200.987L201.643 157.578H205.703L204.42 163.609H190.631L191.259 160.743H191.257Z" fill="#2E3192"/>
<path d="M202.868 151.607H206.928L206.032 155.817H202.002L202.868 151.607Z" fill="#2E3192"/>
<path d="M207.778 181.298C206.792 180.831 206.007 180.133 205.419 179.208C204.831 178.283 204.538 177.172 204.538 175.879C204.538 175.301 204.618 174.616 204.777 173.819C205.374 170.993 206.597 168.838 208.447 167.356C210.298 165.874 212.785 165.132 215.909 165.132C218.396 165.132 220.247 165.661 221.46 166.716C222.674 167.77 223.282 169.164 223.282 170.895C223.282 171.373 223.211 171.981 223.072 172.716L221.222 181.553H216.716L218.595 172.687C218.714 172.169 218.774 171.701 218.774 171.284C218.774 170.429 218.49 169.777 217.924 169.328C217.358 168.88 216.437 168.657 215.164 168.657C213.731 168.657 212.503 169.095 211.477 169.971C210.451 170.847 209.771 172.131 209.433 173.823C209.294 174.4 209.225 174.968 209.225 175.524C209.225 176.519 209.498 177.261 210.046 177.748C210.592 178.236 211.444 178.479 212.599 178.479C213.355 178.479 214.06 178.37 214.717 178.151L213.972 181.615C213.136 181.873 212.152 182.004 211.018 182.004C209.883 182.004 208.764 181.77 207.78 181.302L207.778 181.298Z" fill="#2E3192"/>
<path d="M211.822 160.743H221.552L222.209 157.578H226.268L224.986 163.609H211.196L211.824 160.743H211.822Z" fill="#2E3192"/>
<path d="M227.133 172.028L226.178 169.489C227.63 168.076 229.168 166.996 230.789 166.251C232.41 165.505 234.177 165.13 236.087 165.13C238.196 165.13 239.853 165.574 241.056 166.459C242.259 167.345 242.861 168.574 242.861 170.146C242.861 170.684 242.811 171.161 242.711 171.579L240.622 181.551H236.085L238.115 171.938C238.214 171.4 238.265 170.982 238.265 170.684C238.265 169.987 238.041 169.475 237.594 169.146C237.145 168.818 236.395 168.653 235.34 168.653C234.484 168.653 233.697 168.773 232.981 169.012C232.265 169.251 231.558 169.638 230.863 170.175L231.639 172.086L229.64 181.551H225.132L227.131 172.028H227.133Z" fill="#2E3192"/>
<path d="M243.25 180.715L244.026 177.192C245.061 178.048 246.653 178.475 248.802 178.475C250.473 178.475 251.855 178.072 252.951 177.266C254.046 176.461 254.762 175.231 255.1 173.579C255.24 172.882 255.308 172.336 255.308 171.938C255.308 170.823 254.95 169.996 254.234 169.459C253.518 168.921 252.403 168.653 250.891 168.653C248.842 168.653 247.1 169.091 245.667 169.967L246.412 166.444C247.188 166.006 248.118 165.679 249.203 165.46C250.287 165.241 251.427 165.132 252.62 165.132C254.869 165.132 256.654 165.709 257.978 166.864C259.301 168.018 259.963 169.602 259.963 171.612C259.963 172.289 259.892 172.945 259.753 173.582C259.196 176.309 258.031 178.394 256.262 179.838C254.491 181.282 252.083 182.002 249.039 182.002C246.412 182.002 244.482 181.573 243.249 180.717L243.25 180.715Z" fill="#2E3192"/>
<path d="M257.875 158.294H262.381L261.278 163.609H256.77L257.875 158.294Z" fill="#2E3192"/>
<path d="M267.457 171.61C267.576 171.093 267.636 170.646 267.636 170.266C267.636 169.688 267.446 169.276 267.07 169.026C266.692 168.778 266.044 168.653 265.13 168.653C264.096 168.653 262.981 168.921 261.788 169.459L262.504 166.026C263.021 165.787 263.703 165.577 264.548 165.398C265.393 165.219 266.194 165.13 266.95 165.13C268.661 165.13 269.966 165.539 270.861 166.355C271.756 167.172 272.203 168.326 272.203 169.819C272.203 170.416 272.133 171.024 271.995 171.641L269.906 181.553H265.369L267.459 171.612L267.457 171.61Z" fill="#2E3192"/>
<path d="M278.827 160.234H283.006L279.336 166.146H275.635L278.829 160.234H278.827ZM284.319 160.234H288.498L284.797 166.146H281.127L284.321 160.234H284.319Z" fill="#2E3192"/>
<path d="M86.5449 46.3744H81.1924V11.1191H94.5746C97.9464 11.1191 100.689 12.1269 102.803 14.1445C104.818 16.1258 105.826 18.688 105.826 21.8292C105.826 24.9704 104.818 27.4819 102.803 29.4651C100.687 31.4826 97.9464 32.4905 94.5746 32.4905H90.7307V27.681H94.2762C96.1592 27.681 97.6642 27.1689 98.7858 26.1448C99.9091 25.088 100.472 23.6495 100.472 21.831C100.472 20.0125 99.9091 18.5252 98.7858 17.4684C97.6624 16.4425 96.1592 15.9322 94.2762 15.9322H86.5431V46.3762L86.5449 46.3744Z" fill="#263D8A"/>
<path d="M123.128 10.9707L136.114 46.3744H130.413L128.826 41.8128L127.934 39.2832L121.093 18.954L115.59 34.6727H121.936L123.521 39.2832H113.953L111.526 46.3744H105.824L118.81 10.9707H123.123H123.128Z" fill="#263D8A"/>
<path d="M141.022 46.3744V11.0702H146.375V41.5631H163.376V46.3726H141.022V46.3744Z" fill="#263D8A"/>
<path d="M195.249 46.3744V22.7719L187.122 39.978H183.155L174.829 22.7719V46.3744H169.476V11.0702H174.829L185.139 33.0351L195.251 11.0702H200.605V46.3744H195.251H195.249Z" fill="#263D8A"/>
<path d="M37.5728 91.7536H32.2202V56.4983H45.6043C48.9743 56.4983 51.7166 57.5062 53.8312 59.5219C55.8463 61.505 56.8556 64.0672 56.8556 67.2066C56.8556 70.346 55.8481 72.8612 53.8312 74.8443C51.7148 76.8619 48.9743 77.8697 45.6043 77.8697H41.7604V73.0584H45.3076C47.1907 73.0584 48.6939 72.5463 49.8172 71.5222C50.9405 70.4654 51.5031 69.0269 51.5031 67.2066C51.5031 65.3863 50.9405 63.9026 49.8172 62.8458C48.6939 61.8199 47.1907 61.3096 45.3076 61.3096H37.5746V91.7536H37.5728Z" fill="#263D8A"/>
<path d="M21.611 89.3217C19.2992 91.1421 16.2584 92.0504 12.4905 92.0504C7.23561 92.0504 3.07152 90.4961 0 87.3874L3.56896 83.8681C5.81562 86.1172 8.82382 87.2391 12.59 87.2391C17.4487 87.2391 19.8762 85.4387 19.8762 81.836C19.8762 80.2166 19.4131 78.9934 18.4888 78.1665C17.6965 77.4409 16.4067 76.9451 14.6232 76.6773L10.4591 76.082C7.58473 75.6857 5.35435 74.743 3.76794 73.2574C2.04949 71.638 1.19026 69.3888 1.19026 66.5136C1.19026 63.405 2.24847 60.9097 4.36307 59.0261C6.47587 57.1099 9.35202 56.1491 12.9879 56.1491C17.4161 56.1491 21.0683 57.4899 23.9426 60.1661L20.522 63.5389C18.6064 61.7222 16.0432 60.812 12.8396 60.812C10.8227 60.812 9.23625 61.3404 8.08036 62.3989C6.95704 63.3923 6.39628 64.6969 6.39628 66.3164C6.39628 67.7042 6.84308 68.7971 7.73486 69.5897C8.65921 70.4148 9.97971 70.9612 11.7 71.2254L15.7139 71.8207C18.6552 72.284 20.853 73.1597 22.3074 74.4499C24.223 76.1345 25.1817 78.5483 25.1817 81.6877C25.1817 84.8271 23.9933 87.4381 21.6128 89.3236L21.611 89.3217Z" fill="#263D8A"/>
<path d="M132.249 91.7537L115.94 66.9117V91.7537H110.587V56.4495H115.495L131.802 81.2408V56.4495H137.155V91.7537H132.249Z" fill="#263D8A"/>
<path d="M170.665 78.0688C170.665 82.4639 169.605 85.7861 167.49 88.0334C164.947 90.7132 161.709 92.0504 157.774 92.0504C154.108 92.0504 151.016 90.7946 148.506 88.2813C146.919 86.6926 145.912 84.7438 145.483 82.4295C145.217 80.9765 145.085 78.199 145.085 74.0988C145.085 69.9986 145.217 67.2247 145.483 65.7699C145.912 63.4556 146.921 61.505 148.506 59.92C151.016 57.4084 154.108 56.1509 157.774 56.1509C161.441 56.1509 164.303 57.2257 166.647 59.3753C168.762 61.3259 170.084 63.9044 170.612 67.1107H165.207C164.248 63.0123 161.77 60.964 157.773 60.964C155.658 60.964 153.923 61.6896 152.568 63.1444C151.148 64.6987 150.436 68.3502 150.436 74.1024C150.436 79.8547 151.147 83.5568 152.568 85.1111C153.889 86.5316 155.625 87.2427 157.773 87.2427C160.151 87.2427 162.069 86.4176 163.523 84.7637C164.715 83.3741 165.308 81.5248 165.308 79.2087V77.2256H157.773V72.6639H170.663V78.0706L170.665 78.0688Z" fill="#263D8A"/>
<path d="M197.035 89.3217C194.721 91.1421 191.68 92.0504 187.914 92.0504C182.661 92.0504 178.497 90.4961 175.424 87.3874L178.993 83.8681C181.239 86.1172 184.248 87.2391 188.016 87.2391C192.872 87.2391 195.302 85.4387 195.302 81.836C195.302 80.2166 194.839 78.9934 193.914 78.1665C193.12 77.4409 191.831 76.9451 190.047 76.6773L185.885 76.082C183.01 75.6857 180.78 74.743 179.192 73.2574C177.471 71.638 176.614 69.3888 176.614 66.5136C176.614 63.405 177.672 60.9097 179.787 59.0261C181.902 57.1099 184.776 56.1491 188.412 56.1491C192.84 56.1491 196.49 57.4899 199.366 60.1661L195.948 63.5389C194.03 61.7222 191.467 60.812 188.263 60.812C186.248 60.812 184.662 61.3404 183.506 62.3989C182.381 63.3923 181.822 64.6969 181.822 66.3164C181.822 67.7042 182.269 68.7971 183.16 69.5897C184.087 70.4148 185.407 70.9612 187.126 71.2254L191.141 71.8207C194.083 72.284 196.279 73.1597 197.733 74.4499C199.652 76.1345 200.611 78.5483 200.611 81.6877C200.611 84.8271 199.421 87.4381 197.042 89.3236L197.035 89.3217Z" fill="#263D8A"/>
<path d="M96.0146 91.7537V56.4495H101.369V91.7537H96.0146Z" fill="#263D8A"/>
<path d="M79.5846 77.6345C81.7698 77.231 83.6293 76.3027 85.1596 74.8443C87.1748 72.8612 88.1841 70.3171 88.1841 67.2066C88.1841 64.0962 87.1748 61.505 85.1596 59.5219C83.0432 57.5062 80.3009 56.4983 76.9309 56.4983H63.5469V91.7536H68.9012V61.3096H76.6343C78.5173 61.3096 80.0224 61.8217 81.1457 62.8458C82.269 63.9026 82.8316 65.3574 82.8316 67.2066C82.8316 69.0559 82.269 70.4636 81.1457 71.5222C80.0224 72.5481 78.5173 73.0584 76.6343 73.0584H73.087V77.8697L83.414 91.7536H90.0853L79.5846 77.6345Z" fill="#263D8A"/>
<path d="M265.366 64.5666L265.373 66.358L265.366 66.3725V91.7536H269.986V63.9387C271.621 51.0862 284.676 48.4679 295.565 48.5856C296.497 45.2797 297 41.7893 297 38.1848C297 36.6577 296.907 35.1522 296.732 33.6703C266.082 34.9007 265.364 64.5666 265.364 64.5666H265.366Z" fill="#6A92CC"/>
<path d="M247.651 63.9388V91.7536H252.271V66.3725L252.266 66.358L252.271 64.5666C252.271 64.5666 251.555 34.9097 220.919 33.6739C220.746 35.154 220.653 36.6595 220.653 38.1867C220.653 41.7911 221.153 45.2815 222.086 48.5874C232.972 48.4734 246.018 51.0935 247.651 63.9406V63.9388Z" fill="#6A92CC"/>
<path d="M267.732 1.04586C264.874 0.36189 261.891 0 258.825 0C255.759 0 252.777 0.36189 249.919 1.04586C257.624 18.1958 258.825 32.1123 258.825 32.1123C258.825 32.1123 260.028 18.1958 267.732 1.04586Z" fill="#6A92CC"/>
<path d="M256.522 66.3725V91.7536H261.127V66.3725C261.127 66.3725 258.418 29.3095 292.456 20.1012C289.907 15.3713 286.39 11.2421 282.176 7.97607C274.504 13.4714 260.941 26.8125 258.825 47.4203C256.71 26.8125 243.147 13.4714 235.477 7.97969C231.259 11.2439 227.744 15.3749 225.195 20.103C259.23 29.3131 256.522 66.3743 256.522 66.3743V66.3725Z" fill="#6A92CC"/>
</g>
<defs>
<clipPath id="clip0_58_227">
<rect width="297" height="182" fill="white"/>
</clipPath>
</defs>
</svg>
