<svg width="164" height="164" viewBox="0 0 164 164" fill="none" xmlns="http://www.w3.org/2000/svg">
<path d="M81.5775 0C126.6 0 163.155 36.5549 163.155 81.5775C163.155 126.6 126.6 163.155 81.5775 163.155C36.5549 163.155 0 126.6 0 81.5775C0 36.5549 36.5549 0 81.5775 0Z" fill="#EFF2FF"/>
<path d="M87.2082 99.8296L81.0277 111.385L79.4571 114.312L78.6097 115.9L75.2646 122.156L73.9313 124.649L62.2499 146.486C61.6565 147.594 60.698 147.585 60.1214 146.468L55.6672 137.832C55.0906 136.714 53.593 135.779 52.3328 135.76L41.9035 135.573C40.6493 135.552 40.1569 134.654 40.8131 133.581L52.8906 113.838L53.7609 112.416V112.414L57.9615 105.548L58.6705 104.385L68.0338 89.0818L81.2899 96.5119L87.2082 99.8296Z" fill="#5274FE"/>
<path d="M119.265 136.949L108.836 136.762C107.576 136.742 106.047 137.618 105.43 138.715L100.67 147.192C100.053 148.288 99.099 148.261 98.5452 147.129L87.6549 124.914L86.378 122.305L83.5613 116.563L82.7144 114.827L81.0282 111.385L75.261 99.618L81.2898 96.5123L94.802 89.5559L104.405 106.587L105.088 107.793L108.188 113.294L109.08 114.873L109.082 114.875L120.427 134.997C121.043 136.093 120.519 136.972 119.265 136.949Z" fill="#5274FE"/>
<path d="M122.338 89.6201C121.961 90.9378 122.014 92.4421 122.159 93.9803C122.354 96.0748 122.723 98.229 122.421 100.081C122.308 100.798 122.093 101.462 121.734 102.062C119.718 105.415 113.815 105.722 111.015 108.421C109.772 109.623 108.981 111.456 108.182 113.285C107.185 115.574 106.181 117.851 104.284 118.908C100.913 120.778 95.6528 118.112 91.8265 119.068C89.9673 119.527 88.1902 120.976 86.3757 122.293C84.5763 123.612 82.7354 124.794 80.7454 124.761C78.7752 124.724 76.9976 123.508 75.2687 122.144C73.4811 120.749 71.738 119.202 69.8747 118.672C66.0783 117.585 60.7314 120.065 57.4313 118.075C55.5945 116.97 54.6727 114.693 53.7693 112.408C53.023 110.515 52.2908 108.618 51.0735 107.357C48.3747 104.56 42.4874 104.042 40.5831 100.622C40.3185 100.14 40.139 99.6182 40.0386 99.0615C39.6355 96.9788 40.2247 94.4731 40.5086 92.0877C40.6693 90.7061 40.7251 89.3626 40.4305 88.1604C39.6573 85.0545 36.1103 82.1646 35.039 78.9538C34.8342 78.3454 34.7181 77.7218 34.7293 77.0834C34.8002 73.0888 39.7694 69.8784 40.8184 66.2158C40.8929 65.9547 40.9527 65.6784 40.9978 65.4021C41.2924 63.5277 40.9264 61.3663 40.7286 59.2983C40.5309 57.2525 40.5015 55.2924 41.4192 53.7653C43.435 50.4166 49.3416 50.1068 52.1382 47.4116C54.9344 44.7123 55.449 38.8209 58.8723 36.9247C62.2433 35.0544 67.4964 37.7156 71.3309 36.7675C75.034 35.8493 78.4167 30.9999 82.4074 31.0708C86.402 31.1418 89.6124 36.1069 93.2826 37.16C97.0719 38.246 102.422 35.7677 105.725 37.7572C109.078 39.7771 109.384 45.6791 112.083 48.4753C114.779 51.2754 120.669 51.7906 122.567 55.2062C123.369 56.6547 123.339 58.4394 123.111 60.3173C122.838 62.6805 122.252 65.182 122.648 67.2988C122.671 67.422 122.697 67.5452 122.727 67.6684C123.645 71.3715 128.49 74.7502 128.42 78.7484C128.412 79.3193 128.3 79.876 128.11 80.4175C127.005 83.6725 123.238 86.4802 122.338 89.6201Z" fill="#CCD6FF"/>
<path d="M114.287 78.4881C114.283 78.4247 114.272 78.3608 114.261 78.2979C114.257 78.2639 114.253 78.2299 114.246 78.1965C114.235 78.1366 114.22 78.0768 114.205 78.0174C114.197 77.9759 114.187 77.9353 114.175 77.8942C114.157 77.8156 114.134 77.741 114.108 77.6624C113.376 75.3996 110.874 73.3715 110.329 71.1873C109.664 68.5096 111.528 64.8354 110.221 62.4787C108.892 60.0891 104.776 59.731 102.891 57.7775C101.009 55.821 100.792 51.6944 98.45 50.2866C96.1421 48.894 92.4044 50.6264 89.7531 49.8682C87.1911 49.1323 84.951 45.664 82.1577 45.6153C79.3684 45.5631 77.0042 48.9498 74.4162 49.5918C71.7426 50.2607 68.0684 48.3975 65.7117 49.7044C63.3221 51.0301 62.9595 55.145 61.0065 57.0305C59.0535 58.9166 54.9274 59.1336 53.5155 61.471C53.2579 61.9006 53.1048 62.3813 53.0267 62.8936C53.0267 62.8971 53.0267 62.8976 53.0267 62.9012C53.0226 62.9235 53.0185 62.9458 53.015 62.9686C53.0038 63.0655 52.9927 63.1659 52.9815 63.2633V63.2744C52.9739 63.3824 52.9663 63.491 52.9628 63.603C52.9592 63.7116 52.9552 63.8196 52.9552 63.9281C52.9552 64.0655 52.9592 64.2081 52.9628 64.346C52.9775 64.7345 53.0114 65.1305 53.0525 65.5297C53.0561 65.5672 53.0596 65.6047 53.0637 65.6382C53.0748 65.7391 53.086 65.84 53.0977 65.9409C53.1423 66.3517 53.191 66.7656 53.228 67.1728V67.1763C53.2503 67.4345 53.2731 67.6926 53.2843 67.9462C53.2878 68.0395 53.2914 68.1328 53.2954 68.2261C53.3142 68.9097 53.2691 69.5629 53.0977 70.1639C53.0789 70.2349 53.0561 70.3028 53.0343 70.3698C53.0114 70.4367 52.9851 70.5077 52.9552 70.5752C52.9293 70.6426 52.9029 70.7136 52.8694 70.7806C52.8395 70.8475 52.8096 70.915 52.7726 70.9819C52.7386 71.0494 52.7051 71.1168 52.6681 71.1837C52.6047 71.307 52.5337 71.4267 52.4587 71.5463C51.8313 72.5616 50.9317 73.5511 50.1882 74.5745C50.1289 74.6531 50.0726 74.7317 50.0203 74.8098C49.6917 75.2769 49.4006 75.7546 49.1952 76.2475C49.1612 76.318 49.1318 76.3931 49.1019 76.4717C49.0832 76.5239 49.0639 76.5797 49.0456 76.6355C49.0421 76.6466 49.0385 76.6583 49.0345 76.669C49.0162 76.7212 49.001 76.778 48.9898 76.8302C48.9711 76.8784 48.9599 76.923 48.9523 76.9682C48.9452 76.9905 48.9371 77.0128 48.9371 77.0351C48.9183 77.1026 48.9036 77.17 48.893 77.2369C48.8813 77.3156 48.8702 77.3977 48.863 77.4758C48.8519 77.5727 48.8438 77.666 48.8438 77.7634C48.7951 80.5531 52.1828 82.9164 52.8248 85.5043C52.8476 85.5865 52.8654 85.6727 52.8771 85.7584C52.8806 85.7731 52.8811 85.7848 52.8847 85.8V85.8035C52.9029 85.8892 52.9181 85.9749 52.9252 86.0647C52.9404 86.1509 52.9475 86.2402 52.9516 86.3299C52.9628 86.4197 52.9663 86.509 52.9663 86.5987C52.9775 86.8376 52.9739 87.0846 52.9592 87.331V87.3381C52.9516 87.4948 52.9404 87.6515 52.9252 87.8083C52.9252 87.8083 52.9252 87.8083 52.9252 87.8123C52.9105 87.969 52.8953 88.1262 52.873 88.287C52.8578 88.4325 52.84 88.5786 52.8213 88.7241C52.8142 88.7576 52.8096 88.7911 52.8061 88.8246C52.731 89.3621 52.6453 89.9043 52.5783 90.4383C52.5672 90.5275 52.5555 90.6168 52.5479 90.7106C52.518 90.9424 52.4962 91.1736 52.4815 91.4013C52.4516 91.8197 52.448 92.2224 52.4815 92.6109C52.4779 92.6154 52.4779 92.6185 52.4815 92.6185C52.5337 93.1895 52.6681 93.7276 52.9369 94.2094C53.0596 94.433 53.2097 94.6389 53.3776 94.8291C53.7133 95.2135 54.1353 95.5391 54.6059 95.8266C54.7332 95.9047 54.8676 95.9793 55.002 96.0538C55.1921 96.1628 55.394 96.2633 55.5994 96.3601C55.7713 96.4463 55.9468 96.5244 56.1222 96.6066C56.4767 96.7674 56.8388 96.92 57.1974 97.0808C57.4661 97.1969 57.7354 97.3161 57.9966 97.4398C58.2583 97.5631 58.5124 97.6898 58.7588 97.8242C59.3334 98.1376 59.8527 98.4891 60.2635 98.9181C62.1496 100.871 62.3621 104.994 64.7035 106.406C67.0115 107.795 70.7491 106.066 73.4004 106.823C74.1551 107.04 74.8833 107.492 75.604 108.026C75.6937 108.093 75.7794 108.157 75.8651 108.224C75.9732 108.306 76.0857 108.392 76.1938 108.478C76.4215 108.657 76.6532 108.84 76.8809 109.023C77.0341 109.147 77.1872 109.266 77.344 109.386C77.7284 109.684 78.1173 109.968 78.5129 110.214C79.3051 110.711 80.1221 111.062 80.9959 111.077C83.7856 111.125 86.1494 107.739 88.7368 107.096C89.7338 106.85 90.8734 106.951 92.0271 107.111C92.2325 107.138 92.4415 107.167 92.6474 107.197C92.7853 107.219 92.9238 107.242 93.0617 107.261C94.4513 107.462 95.8139 107.616 96.9418 107.212C97.1132 107.153 97.2816 107.078 97.4424 106.988C97.5164 106.947 97.5874 106.902 97.6584 106.853C97.7999 106.76 97.9353 106.659 98.0621 106.543C99.9136 104.908 100.377 101.372 102.147 99.6611C103.431 98.4252 105.646 97.9064 107.416 97.0326C107.506 96.991 107.588 96.9464 107.67 96.9048C108.163 96.6477 108.615 96.3566 108.992 96.0056C109.242 95.7698 109.462 95.5092 109.639 95.2175C109.691 95.1283 109.743 95.038 109.784 94.9452C109.829 94.8519 109.869 94.754 109.907 94.6572C110.153 94.0004 110.217 93.261 110.194 92.4805C110.191 92.3872 110.187 92.2939 110.183 92.2006C110.18 92.1073 110.173 92.0094 110.169 91.9161C110.161 91.8233 110.153 91.7259 110.146 91.6326C110.142 91.5616 110.135 91.487 110.127 91.412C110.123 91.3892 110.12 91.3679 110.12 91.345C110.112 91.2482 110.101 91.1508 110.09 91.0539C110.078 90.9601 110.068 90.8627 110.06 90.7659C110.056 90.7101 110.049 90.6503 110.042 90.5914C110.016 90.3592 109.989 90.1279 109.963 89.8961C109.963 89.8551 109.955 89.8145 109.952 89.7765C109.911 89.3733 109.877 88.9742 109.862 88.5852C109.855 88.3803 109.852 88.1749 109.859 87.9695C109.859 87.8945 109.862 87.824 109.866 87.753C109.873 87.611 109.884 87.469 109.899 87.331C109.907 87.26 109.914 87.1926 109.926 87.1251C109.926 87.1216 109.926 87.1216 109.926 87.1216C109.937 87.0546 109.948 86.9872 109.963 86.9203C109.974 86.864 109.985 86.8041 110 86.7478C110.015 86.6697 110.034 86.5952 110.056 86.5206C110.261 85.8 110.684 85.1052 111.188 84.414C111.3 84.2608 111.416 84.1117 111.532 83.9586C111.587 83.8835 111.651 83.8059 111.71 83.7268C111.893 83.4996 112.076 83.2719 112.256 83.0437C112.375 82.8905 112.499 82.7333 112.618 82.5766C112.917 82.1922 113.201 81.8037 113.447 81.4122C113.596 81.1729 113.731 80.934 113.85 80.6875C113.928 80.5268 113.999 80.363 114.059 80.1986C114.208 79.7838 114.302 79.3624 114.31 78.9252C114.313 78.7792 114.306 78.6336 114.287 78.4881Z" fill="white"/>
<path d="M107.397 78.8046C107.144 93.0649 95.3793 104.42 81.119 104.166C66.8591 103.913 55.5039 92.1476 55.7576 77.8872C56.0103 63.6274 67.7759 52.2732 82.0358 52.5259C96.2962 52.7791 107.651 64.5442 107.397 78.8046Z" fill="#CCD6FF"/>
<path d="M93.5666 74.0845L88.6912 73.3311C87.4403 73.1368 85.9665 72.046 85.4153 70.9054L83.2708 66.4604C82.7216 65.3198 81.8045 65.3123 81.2342 66.4423L79.0094 70.8477C78.4397 71.9772 76.9462 73.0409 75.6928 73.2116L70.8004 73.8782C69.5459 74.0489 69.2548 74.9178 70.1529 75.8094L73.6572 79.2871C74.5568 80.1787 75.108 81.9271 74.8811 83.173L74.0036 88.0302C73.7787 89.2762 74.5156 89.8223 75.6411 89.2425L80.03 86.9856C81.1554 86.4068 82.9907 86.4234 84.1046 87.0218L88.4528 89.359C89.5677 89.9574 90.3147 89.4258 90.1114 88.1763L89.3202 83.301C89.1184 82.0516 89.7002 80.3137 90.6149 79.4387L94.179 76.0272C95.0931 75.1518 94.817 74.2783 93.5666 74.0845Z" fill="white"/>
<path d="M140.861 25.1622L142.567 24.8113C142.683 24.7873 142.757 24.9334 142.668 25.013L141.369 26.1727C141.338 26.2003 141.324 26.2428 141.332 26.2835L141.683 27.989C141.707 28.1059 141.561 28.1794 141.482 28.0904L140.322 26.7916C140.294 26.7605 140.252 26.7465 140.211 26.7549L138.506 27.1059C138.389 27.1298 138.315 26.9837 138.404 26.9042L139.703 25.7445C139.734 25.7168 139.748 25.6744 139.74 25.6336L139.389 23.9281C139.365 23.8112 139.511 23.7378 139.59 23.8267L140.75 25.1256C140.778 25.1566 140.82 25.1707 140.861 25.1622Z" fill="#91A6FE"/>
<path d="M18.7183 77.5574L19.3649 74.435C19.4094 74.221 19.7079 74.2034 19.7772 74.4107L20.7857 77.4357C20.8098 77.5079 20.8709 77.5621 20.9453 77.5776L24.0678 78.2242C24.2818 78.2687 24.2994 78.5673 24.0921 78.6365L21.067 79.645C20.9949 79.6691 20.9407 79.7302 20.9251 79.8046L20.2785 82.9271C20.2341 83.1411 19.9355 83.1587 19.8663 82.9514L18.8578 79.9263C18.8336 79.8542 18.7726 79.8 18.6981 79.7845L15.5757 79.1378C15.3617 79.0934 15.3441 78.7948 15.5514 78.7256L18.5764 77.7171C18.6486 77.6929 18.7028 77.6319 18.7183 77.5574Z" fill="#91A6FE"/>
<path d="M33.2687 40.2533L29.0865 41.8338C28.7998 41.942 28.5543 41.6013 28.7477 41.3636L31.5713 37.8971C31.6388 37.8144 31.6572 37.701 31.6194 37.6012L30.0388 33.419C29.9307 33.1322 30.2713 32.8868 30.5091 33.0802L33.9756 35.9038C34.0583 35.9713 34.1716 35.9897 34.2715 35.9518L38.4537 34.3713C38.7404 34.2632 38.9858 34.6038 38.7925 34.8416L35.9689 38.3081C35.9014 38.3908 35.883 38.5041 35.9208 38.6039L37.5014 42.7862C37.6095 43.0729 37.2688 43.3183 37.0311 43.125L33.5646 40.3014C33.4819 40.2339 33.3685 40.2155 33.2687 40.2533Z" fill="#91A6FE"/>
</svg>
