<svg width="172" height="53" viewBox="0 0 172 53" fill="none" xmlns="http://www.w3.org/2000/svg">
<g clip-path="url(#clip0_3_6)">
<path d="M50.1224 26.701H47.0205V6.40485H54.7706C56.7211 6.40485 58.3122 6.98326 59.5345 8.14714C60.7025 9.28515 61.2865 10.7618 61.2865 12.5699C61.2865 14.378 60.7025 15.8264 59.5345 16.9668C58.3122 18.1259 56.7211 18.709 54.7706 18.709H52.5434V15.9393H54.598C55.6879 15.9393 56.5579 15.6453 57.2081 15.0528C57.8583 14.4438 58.1845 13.6162 58.1845 12.5699C58.1845 11.5236 57.8583 10.6677 57.2081 10.0564C56.5579 9.4662 55.6855 9.17229 54.598 9.17229H50.1201V26.701H50.1224Z" fill="#09418C"/>
<path d="M71.3064 6.31787L78.8295 26.7034H75.5266L74.6093 24.0747L74.0915 22.6192L70.129 10.9146L66.9444 19.9646H70.6161L71.5358 22.6192H65.9963L64.5896 26.7034H61.2891L68.8074 6.31787H71.3064Z" fill="#09418C"/>
<path d="M81.6689 26.7011V6.37433H84.7685V23.9313H94.6156V26.7011H81.6689Z" fill="#09418C"/>
<path d="M113.073 26.7011V13.1107L108.366 23.0166H106.068L101.245 13.1107V26.7011H98.1455V6.37433H101.245L107.215 19.0195L113.073 6.37433H116.173V26.7011H113.073Z" fill="#09418C"/>
<path d="M21.7582 52.8284H18.6587V32.5298H26.4087C28.3616 32.5298 29.948 33.1106 31.1751 34.2698C32.343 35.4125 32.9246 36.8868 32.9246 38.6949C32.9246 40.503 32.343 41.9514 31.1751 43.0918C29.948 44.2533 28.3616 44.8317 26.4087 44.8317H24.184V42.0619H26.2361C27.3284 42.0619 28.1985 41.768 28.8487 41.1755C29.4988 40.5688 29.8251 39.7388 29.8251 38.6925C29.8251 37.6462 29.4988 36.7903 28.8487 36.1814C28.1985 35.5912 27.3284 35.2949 26.2361 35.2949H21.7582V52.8237V52.8284Z" fill="#09418C"/>
<path d="M12.5165 51.4294C11.1783 52.478 9.41693 53 7.23708 53C4.19191 53 1.78273 52.1042 0.00244141 50.3149L2.06881 48.2881C3.36915 49.5836 5.11161 50.2302 7.29382 50.2302C10.1073 50.2302 11.514 49.1933 11.514 47.1195C11.514 46.186 11.2469 45.483 10.7102 45.0057C10.2515 44.5872 9.50441 44.3027 8.47123 44.1498L6.05968 43.8089C4.39287 43.5808 3.10435 43.0353 2.18465 42.1818C1.1893 41.2507 0.690441 39.9552 0.690441 38.2999C0.690441 36.5105 1.30279 35.0739 2.52747 33.99C3.75216 32.8872 5.41896 32.3323 7.52316 32.3323C10.0884 32.3323 12.202 33.1036 13.8665 34.646L11.8876 36.5858C10.7764 35.5418 9.29399 35.0151 7.43568 35.0151C6.26773 35.0151 5.3504 35.3185 4.68131 35.9274C4.02878 36.4988 3.70487 37.2512 3.70487 38.1846C3.70487 38.9841 3.96258 39.6142 4.48035 40.0704C5.01468 40.5453 5.7807 40.8604 6.77605 41.0109L9.10012 41.3542C10.8048 41.6222 12.0767 42.123 12.9184 42.866C14.0272 43.8371 14.5828 45.2267 14.5828 47.0348C14.5828 48.843 13.8948 50.3454 12.5165 51.4294Z" fill="#09418C"/>
<path d="M76.5877 52.8283L67.1425 38.5255V52.8283H64.043V32.5016H66.8872L76.33 46.7762V32.5016H79.4319V52.8283H76.5901H76.5877Z" fill="#09418C"/>
<path d="M98.8355 44.9492C98.8355 47.4816 98.2231 49.3931 96.9984 50.684C95.5255 52.2264 93.6483 52.9976 91.3715 52.9976C89.2484 52.9976 87.4586 52.2758 86.0022 50.8274C85.0849 49.9128 84.5009 48.7912 84.2527 47.458C84.099 46.621 84.021 45.0245 84.021 42.6614C84.021 40.2984 84.0966 38.7019 84.2527 37.8649C84.5009 36.534 85.0849 35.4101 86.0022 34.4978C87.4586 33.0518 89.2484 32.3253 91.3715 32.3253C93.4946 32.3253 95.1519 32.9436 96.509 34.1828C97.7337 35.3043 98.4997 36.788 98.8047 38.6337H95.6744C95.1212 36.2754 93.6837 35.0927 91.3691 35.0927C90.1444 35.0927 89.1396 35.5112 88.3547 36.3506C87.5319 37.2441 87.1182 39.3485 87.1182 42.6591C87.1182 45.9697 87.5296 48.1023 88.3547 48.9981C89.1207 49.8164 90.1255 50.2255 91.3691 50.2255C92.7475 50.2255 93.8563 49.7505 94.698 48.7983C95.3884 47.9988 95.7335 46.9337 95.7335 45.6005V44.4578H91.3691V41.8314H98.8331V44.9445L98.8355 44.9492Z" fill="#09418C"/>
<path d="M114.106 51.4294C112.768 52.478 111.007 53 108.827 53C105.784 53 103.37 52.1042 101.592 50.3149L103.659 48.2881C104.961 49.5836 106.701 50.2302 108.884 50.2302C111.697 50.2302 113.104 49.1933 113.104 47.1195C113.104 46.186 112.837 45.483 112.3 45.0057C111.839 44.5872 111.092 44.3027 110.059 44.1498L107.65 43.8089C105.985 43.5808 104.694 43.0353 103.774 42.1818C102.779 41.2507 102.28 39.9552 102.28 38.2999C102.28 36.5105 102.893 35.0739 104.12 33.99C105.344 32.8872 107.009 32.3323 109.113 32.3323C111.678 32.3323 113.792 33.1036 115.459 34.646L113.477 36.5858C112.366 35.5418 110.881 35.0151 109.028 35.0151C107.862 35.0151 106.943 35.3185 106.271 35.9274C105.621 36.4988 105.297 37.2512 105.297 38.1846C105.297 38.9841 105.555 39.6142 106.07 40.0704C106.607 40.5453 107.371 40.8604 108.366 41.0109L110.69 41.3542C112.392 41.6222 113.667 42.123 114.508 42.866C115.619 43.8371 116.175 45.2267 116.175 47.0348C116.175 48.843 115.485 50.3454 114.106 51.4294Z" fill="#09418C"/>
<path d="M55.605 52.8283V32.5016H58.7045V52.8283H55.605Z" fill="#09418C"/>
<path d="M46.089 44.7C47.3539 44.4672 48.4296 43.9335 49.3162 43.0941C50.4865 41.9514 51.0681 40.4865 51.0681 38.6972C51.0681 36.9079 50.4841 35.4148 49.3162 34.2721C48.0915 33.1129 46.5051 32.5322 44.5499 32.5322H36.7998V52.8307H39.9017V35.302H44.3796C45.4719 35.302 46.342 35.5982 46.9945 36.1884C47.6423 36.7974 47.9709 37.6344 47.9709 38.6995C47.9709 39.7647 47.6447 40.5759 46.9945 41.1825C46.342 41.775 45.4719 42.0689 44.3796 42.0689H42.3251V44.8387L48.3067 52.833H52.1699L46.089 44.7047V44.7Z" fill="#09418C"/>
<path d="M153.679 37.1759L153.686 38.2058L153.679 38.2152V52.8284H156.356V36.8139C157.301 29.4144 164.862 27.9072 171.17 27.9731C171.709 26.0685 172 24.0606 172 21.9844C172 21.1074 171.945 20.2397 171.846 19.3862C154.095 20.094 153.679 37.1759 153.679 37.1759Z" fill="#09418C"/>
<path d="M143.421 36.8138V52.8283H146.097V38.2058V37.1759C146.097 37.1759 145.681 20.0986 127.942 19.3885C127.84 20.2397 127.788 21.1073 127.788 21.9844C127.788 24.0629 128.079 26.0685 128.618 27.973C134.921 27.9072 142.477 29.4167 143.423 36.8138H143.421Z" fill="#09418C"/>
<path d="M155.051 0.601925C153.393 0.209263 151.667 0 149.892 0C148.116 0 146.388 0.209263 144.735 0.601925C149.197 10.4749 149.892 18.488 149.892 18.488C149.892 18.488 150.589 10.4749 155.051 0.601925Z" fill="#09418C"/>
<path d="M148.556 38.2152V52.8283H151.223V38.2152C151.223 38.2152 149.655 16.8751 169.366 11.5729C167.889 8.85016 165.853 6.47068 163.413 4.58966C158.971 7.75212 151.116 15.4337 149.889 27.3006C148.665 15.4337 140.811 7.75682 136.368 4.59201C133.924 6.47303 131.888 8.85016 130.413 11.5729C150.123 16.8751 148.554 38.2152 148.554 38.2152H148.556Z" fill="#09418C"/>
</g>
<defs>
<clipPath id="clip0_3_6">
<rect width="172" height="53" fill="white"/>
</clipPath>
</defs>
</svg>
