<svg width="103" height="103" viewBox="0 0 103 103" fill="none" xmlns="http://www.w3.org/2000/svg">
<g clip-path="url(#clip0_291_984)">
<path d="M40.7708 81.5417C18.2911 81.5417 0 63.2506 0 40.7708C0 18.2911 18.2911 0 40.7708 0C63.2506 0 81.5417 18.2911 81.5417 40.7708C81.5417 63.2506 63.2506 81.5417 40.7708 81.5417ZM40.7708 4.29167C20.6558 4.29167 4.29167 20.6558 4.29167 40.7708C4.29167 60.8859 20.6558 77.25 40.7708 77.25C60.8859 77.25 77.25 60.8859 77.25 40.7708C77.25 20.6558 60.8859 4.29167 40.7708 4.29167Z" fill="white"/>
<path d="M100.854 103C100.305 103 99.7553 102.79 99.3347 102.373L67.6364 70.6752C66.7996 69.8383 66.7996 68.4778 67.6364 67.641C68.4733 66.8041 69.8338 66.8041 70.6706 67.641L102.369 99.3392C103.206 100.176 103.206 101.537 102.369 102.373C101.953 102.79 101.403 103 100.854 103Z" fill="white"/>
<path d="M60.083 60.0833H21.458C17.9088 60.0833 15.0205 57.195 15.0205 53.6458V32.1875C15.0205 28.6383 17.9088 25.75 21.458 25.75H60.083C63.6322 25.75 66.5205 28.6383 66.5205 32.1875V53.6458C66.5205 57.195 63.6322 60.0833 60.083 60.0833ZM21.458 30.0417C20.2778 30.0417 19.3122 31.003 19.3122 32.1875V53.6458C19.3122 54.8303 20.2778 55.7917 21.458 55.7917H60.083C61.2632 55.7917 62.2288 54.8303 62.2288 53.6458V32.1875C62.2288 31.003 61.2632 30.0417 60.083 30.0417H21.458Z" fill="white"/>
<path d="M49.3545 30.0416C48.17 30.0416 47.2087 29.0803 47.2087 27.8958V23.6041C47.2087 22.4196 46.243 21.4583 45.0628 21.4583H36.4795C35.2993 21.4583 34.3337 22.4196 34.3337 23.6041V27.8958C34.3337 29.0803 33.3723 30.0416 32.1878 30.0416C31.0033 30.0416 30.042 29.0803 30.042 27.8958V23.6041C30.042 20.0549 32.9303 17.1666 36.4795 17.1666H45.0628C48.612 17.1666 51.5003 20.0549 51.5003 23.6041V27.8958C51.5003 29.0803 50.539 30.0416 49.3545 30.0416Z" fill="white"/>
<path d="M64.3747 42.9167H17.1663C15.9818 42.9167 15.0205 41.9553 15.0205 40.7708C15.0205 39.5863 15.9818 38.625 17.1663 38.625H64.3747C65.5592 38.625 66.5205 39.5863 66.5205 40.7708C66.5205 41.9553 65.5592 42.9167 64.3747 42.9167Z" fill="white"/>
<path d="M40.7708 47.2084C39.5863 47.2084 38.625 46.247 38.625 45.0625V36.4792C38.625 35.2947 39.5863 34.3334 40.7708 34.3334C41.9553 34.3334 42.9167 35.2947 42.9167 36.4792V45.0625C42.9167 46.247 41.9553 47.2084 40.7708 47.2084Z" fill="white"/>
</g>
<defs>
<clipPath id="clip0_291_984">
<rect width="103" height="103" fill="white"/>
</clipPath>
</defs>
</svg>
