<svg width="131" height="131" viewBox="0 0 131 131" fill="none" xmlns="http://www.w3.org/2000/svg">
<g clip-path="url(#clip0_291_1014)">
<path d="M23.5793 113.682C23.0033 113.386 22.3338 113.332 21.7176 113.53C21.1014 113.727 20.5887 114.161 20.2921 114.736V114.737C20.0716 115.166 19.9833 115.651 20.0384 116.131C20.0936 116.61 20.2896 117.062 20.6018 117.43C20.914 117.798 21.3283 118.066 21.7923 118.198C22.2564 118.331 22.7493 118.323 23.2088 118.175C23.6683 118.028 24.0738 117.747 24.374 117.37C24.6741 116.992 24.8555 116.533 24.8952 116.052C24.9348 115.571 24.831 115.089 24.5967 114.667C24.3625 114.245 24.0084 113.902 23.5793 113.682Z" fill="white"/>
<path d="M29.801 117.689C29.3414 117.837 28.9359 118.117 28.6357 118.495C28.3356 118.874 28.1543 119.332 28.1147 119.813C28.0751 120.294 28.179 120.776 28.4133 121.199C28.6476 121.621 29.0018 121.964 29.4311 122.185C29.8603 122.405 30.3454 122.494 30.8251 122.439C31.3047 122.384 31.7573 122.189 32.1257 121.877C32.4941 121.565 32.7618 121.151 32.8948 120.686C33.0279 120.222 33.0204 119.729 32.8733 119.27C32.7754 118.964 32.6183 118.681 32.4109 118.436C32.2035 118.191 31.9499 117.99 31.6646 117.843C31.3793 117.696 31.0679 117.607 30.7481 117.581C30.4283 117.554 30.1065 117.591 29.801 117.689Z" fill="white"/>
<path d="M64.0572 79.4668C64.2457 79.6948 64.4815 79.8793 64.7481 80.0074C65.0148 80.1356 65.3061 80.2044 65.6019 80.2092C65.8977 80.214 66.1911 80.1546 66.4617 80.0351C66.7324 79.9156 66.9739 79.7388 67.1697 79.517C67.7739 78.8323 81.9978 62.6568 84.6614 54.8526C87.7409 45.8293 87.1557 38.4558 82.9221 32.937C78.0977 26.6477 69.6759 24.746 65.4982 25.0265C57.6085 25.5542 51.8527 28.4395 48.3908 33.6021C44.3788 39.5851 44.4275 47.7807 46.2555 53.2488C48.8526 61.0168 63.4375 78.7171 64.0572 79.4668ZM51.7909 35.8821C54.5094 31.8279 59.2134 29.5497 65.7715 29.1111C69.9732 28.8296 76.3664 31.1166 79.6741 35.4286C83.0223 39.7934 83.3966 45.8836 80.787 53.5303C79.02 58.7077 70.3822 69.4744 65.6838 74.9803C60.8717 68.9917 51.8849 57.1758 50.1379 51.9509C49.0107 48.5792 48.0905 41.4005 51.7909 35.8821Z" fill="white"/>
<path d="M116.386 95.8909C75.9399 77.8667 83.3021 81.1874 75.8902 77.7409C75.6465 77.6273 75.3827 77.5629 75.114 77.5513C74.8454 77.5397 74.5771 77.5812 74.3244 77.6734C74.0718 77.7655 73.8398 77.9065 73.6417 78.0884C73.4436 78.2703 73.2832 78.4894 73.1698 78.7332C73.0564 78.9771 72.9922 79.2409 72.9808 79.5096C72.9694 79.7782 73.0111 80.0465 73.1035 80.2991C73.1958 80.5517 73.337 80.7836 73.519 80.9815C73.701 81.1795 73.9202 81.3397 74.1642 81.4529L75.7378 82.1846L65.8366 87.2712L55.5167 81.9695L57.1176 81.219C57.3612 81.1051 57.5801 80.9443 57.7616 80.7458C57.9431 80.5473 58.0837 80.3149 58.1753 80.062C58.2669 79.8092 58.3078 79.5407 58.2957 79.272C58.2835 79.0033 58.2185 78.7396 58.1043 78.496C57.9902 78.2525 57.8291 78.0338 57.6304 77.8525C57.4317 77.6713 57.1992 77.5309 56.9462 77.4396C56.6932 77.3482 56.4247 77.3076 56.156 77.3201C55.8873 77.3326 55.6237 77.3979 55.3803 77.5123L15.1971 95.9159C14.8409 96.0801 14.5391 96.3426 14.327 96.6724C14.1149 97.0023 14.0015 97.3859 14 97.778V112.295C14 112.838 14.2157 113.359 14.5995 113.743C14.9834 114.126 15.504 114.342 16.0469 114.342C16.5897 114.342 17.1104 114.126 17.4942 113.743C17.8781 113.359 18.0938 112.838 18.0938 112.295V101.131L63.2137 124.31V134.225L39.2269 121.902C38.9878 121.779 38.7268 121.705 38.4588 121.683C38.1908 121.661 37.9211 121.691 37.6651 121.774C37.4091 121.856 37.1718 121.988 36.9667 122.162C36.7617 122.335 36.5929 122.548 36.47 122.787C36.3472 123.026 36.2726 123.287 36.2507 123.555C36.2288 123.823 36.2598 124.093 36.3421 124.349C36.4245 124.605 36.5564 124.842 36.7304 125.047C36.9045 125.252 37.1172 125.421 37.3564 125.544L64.3253 139.399C64.6124 139.544 64.9295 139.621 65.2513 139.622C65.5732 139.624 65.891 139.55 66.1793 139.407L116.511 114.124C116.851 113.954 117.136 113.693 117.335 113.37C117.534 113.047 117.64 112.675 117.64 112.295V97.778C117.637 97.3756 117.518 96.9826 117.295 96.6473C117.072 96.312 116.756 96.0491 116.386 95.8909ZM65.2711 120.765L53.6366 114.788L65.8689 108.504L77.6155 114.564L65.2711 120.765ZM37.4347 106.464L49.7013 100.163L61.3993 106.198L49.1575 112.487L37.4347 106.464ZM80.4581 84.3618L93.0131 89.9568L82.0386 95.5948L70.3158 89.5723L80.4581 84.3618ZM65.8366 91.8734L77.5595 97.8958L65.873 103.9L54.175 97.8644L65.8366 91.8734ZM82.1394 112.292L70.3427 106.206L82.0386 100.197L93.992 106.338L82.1394 112.292ZM98.5215 104.063L86.5178 97.8958L97.8102 92.0946L110.812 97.8887L98.5215 104.063ZM61.3575 89.5723L49.7054 95.5584L38.5043 89.7796L50.8205 84.1591L61.3575 89.5723ZM33.7665 91.9416L45.2317 97.8567L32.9556 104.163L20.7383 97.887L33.7665 91.9416ZM67.3074 134.259V124.323L113.546 101.097V111.033L67.3074 134.259Z" fill="white"/>
<path d="M65.8199 54.6516C67.5099 54.6516 69.162 54.1505 70.5671 53.2116C71.9723 52.2728 73.0675 50.9383 73.7143 49.3769C74.361 47.8156 74.5303 46.0975 74.2006 44.44C73.8709 42.7825 73.0571 41.26 71.8621 40.065C70.6671 38.87 69.1446 38.0562 67.4871 37.7265C65.8296 37.3967 64.1115 37.566 62.5502 38.2127C60.9888 38.8594 59.6543 39.9546 58.7154 41.3598C57.7765 42.7649 57.2754 44.417 57.2754 46.1069C57.278 48.3723 58.179 50.5442 59.7809 52.1461C61.3827 53.7479 63.5546 54.649 65.8199 54.6516ZM65.8199 41.656C66.7003 41.656 67.5608 41.917 68.2928 42.4061C69.0247 42.8951 69.5953 43.5903 69.9322 44.4036C70.2691 45.2169 70.3572 46.1118 70.1855 46.9752C70.0138 47.8386 69.5899 48.6317 68.9674 49.2542C68.3449 49.8767 67.5519 50.3006 66.6885 50.4723C65.8251 50.6441 64.9301 50.556 64.1168 50.2191C63.3035 49.8822 62.6083 49.3117 62.1193 48.5798C61.6302 47.8478 61.3691 46.9873 61.3691 46.1069C61.3705 44.9269 61.8398 43.7956 62.6742 42.9612C63.5086 42.1267 64.6399 41.6574 65.8199 41.656Z" fill="white"/>
</g>
<defs>
<clipPath id="clip0_291_1014">
<rect width="131" height="131" fill="white"/>
</clipPath>
</defs>
</svg>
