<svg width="90" height="107" viewBox="0 0 90 107" fill="none" xmlns="http://www.w3.org/2000/svg">
<path d="M52.4385 75.2971L52.4528 77.383L52.4385 77.4021V107H57.8592V74.5637C59.7747 59.5767 75.0887 56.524 87.8648 56.6574C88.9566 52.7999 89.5456 48.7329 89.5456 44.5278C89.5456 42.7514 89.4355 40.9941 89.2343 39.2654C53.2813 40.6988 52.4385 75.2971 52.4385 75.2971Z" fill="white"/>
<path d="M31.6625 74.5636V107H37.0832V77.3829V75.297C37.0832 75.297 36.2404 40.7082 0.311273 39.27C0.105362 40.994 0 42.7513 0 44.5276C0 48.7375 0.589007 52.7998 1.68082 56.6573C14.4473 56.5239 29.7518 59.5813 31.6672 74.5636H31.6625Z" fill="white"/>
<path d="M55.217 1.21915C51.8602 0.423847 48.3645 0 44.7682 0C41.172 0 37.6715 0.423847 34.3242 1.21915C43.3604 21.2162 44.7682 37.4461 44.7682 37.4461C44.7682 37.4461 46.1809 21.2162 55.217 1.21915Z" fill="white"/>
<path d="M42.0615 77.4021V107H47.463V77.4021C47.463 77.4021 44.2882 34.1793 84.211 23.4402C81.2181 17.9255 77.0951 13.106 72.1532 9.29614C63.1554 15.7015 47.2476 31.26 44.7622 55.2954C42.2817 31.26 26.3739 15.711 17.376 9.30091C12.4246 13.1108 8.30158 17.9255 5.31348 23.4402C45.2363 34.1793 42.0567 77.4021 42.0567 77.4021H42.0615Z" fill="white"/>
</svg>
